<?xml version="1.0" encoding="utf-8"?>
<!-- Generator: Adobe Illustrator 21.1.0, SVG Export Plug-In . SVG Version: 6.00 Build 0)  -->
<svg version="1.1" id="Layer_1" xmlns="http://www.w3.org/2000/svg" xmlns:xlink="http://www.w3.org/1999/xlink" x="0px" y="0px"
	 viewBox="0 0 512 512" style="enable-background:new 0 0 512 512;" xml:space="preserve">
<style type="text/css">
	.st0{fill:url(#SVGID_1_);}
	.st1{fill:url(#SVGID_2_);}
	.st2{fill:url(#SVGID_3_);}
	.st3{fill:url(#SVGID_4_);}
	.st4{fill:url(#SVGID_5_);}
	.st5{fill:url(#SVGID_6_);}
	.st6{fill:url(#SVGID_7_);}
	.st7{fill:url(#SVGID_8_);}
	.st8{fill:#FFFFFF;}
</style>
<radialGradient id="SVGID_1_" cx="126.7874" cy="94.2227" r="483.0369" gradientTransform="matrix(1 0 0 -1 1.831055e-04 514)" gradientUnits="userSpaceOnUse">
	<stop  offset="0" style="stop-color:#FAE100"/>
	<stop  offset="5.440000e-02" style="stop-color:#FADC04"/>
	<stop  offset="0.1167" style="stop-color:#FBCE0E"/>
	<stop  offset="0.1829" style="stop-color:#FCB720"/>
	<stop  offset="0.2514" style="stop-color:#FE9838"/>
	<stop  offset="0.3054" style="stop-color:#FF7950"/>
	<stop  offset="0.4922" style="stop-color:#FF1C74"/>
	<stop  offset="1" style="stop-color:#6C1CD1"/>
</radialGradient>
<path class="st0" d="M467.5,115.3c-4-37.4-33.5-66.9-70.8-70.8c-93.7-10-187.6-10-281.3,0C78,48.5,48.5,78,44.5,115.3
	c-10,93.7-10,187.6,0,281.3c4,37.4,33.5,66.9,70.8,70.8c93.7,10,187.6,10,281.3,0c37.4-4,66.9-33.5,70.8-70.8
	C477.5,303,477.5,209,467.5,115.3z"/>
<linearGradient id="SVGID_2_" gradientUnits="userSpaceOnUse" x1="204.9909" y1="286.6935" x2="-537.0328" y2="704.082" gradientTransform="matrix(1 0 0 -1 1.831055e-04 514)">
	<stop  offset="0" style="stop-color:#A1B5D8;stop-opacity:0"/>
	<stop  offset="0.3094" style="stop-color:#90A2BD;stop-opacity:0.3098"/>
	<stop  offset="0.7554" style="stop-color:#7C8B9C;stop-opacity:0.7569"/>
	<stop  offset="1" style="stop-color:#748290"/>
</linearGradient>
<path class="st1" d="M443.7,131.2C440.1,98,414,71.9,380.8,68.3c-83.1-8.9-166.5-8.9-249.6,0C98,71.9,71.9,98,68.3,131.2
	c-8.9,83.1-8.9,166.5,0,249.6c3.5,33.1,29.7,59.3,62.9,62.9c83.1,8.9,166.5,8.9,249.6,0c33.1-3.5,59.3-29.7,62.9-62.9
	C452.6,297.7,452.6,214.3,443.7,131.2z"/>
<linearGradient id="SVGID_3_" gradientUnits="userSpaceOnUse" x1="256.0015" y1="90.3571" x2="256.0015" y2="22.084" gradientTransform="matrix(1 0 0 -1 1.831055e-04 514)">
	<stop  offset="0" style="stop-color:#FAE100;stop-opacity:0"/>
	<stop  offset="0.3068" style="stop-color:#FCA800;stop-opacity:0.3059"/>
	<stop  offset="0.6275" style="stop-color:#FE7300;stop-opacity:0.6275"/>
	<stop  offset="0.8685" style="stop-color:#FF5200;stop-opacity:0.8667"/>
	<stop  offset="1" style="stop-color:#FF4500"/>
</linearGradient>
<path class="st2" d="M43.6,387.6c0.3,3,0.6,6.1,0.9,9.1c4,37.4,33.5,66.9,70.8,70.8c93.7,10,187.6,10,281.3,0
	c37.4-4,66.9-33.5,70.8-70.8c0.3-3,0.6-6.1,0.9-9.1H43.6z"/>
<linearGradient id="SVGID_4_" gradientUnits="userSpaceOnUse" x1="231.0813" y1="283.5367" x2="122.6833" y2="391.9347" gradientTransform="matrix(1 0 0 -1 1.831055e-04 514)">
	<stop  offset="0" style="stop-color:#833AB4;stop-opacity:0"/>
	<stop  offset="1" style="stop-color:#833AB4"/>
</linearGradient>
<path class="st3" d="M467.5,396.7c5.4-50.3,7.9-100.8,7.5-151.2L374.8,145.4c-12.5-14.3-30.8-23.2-52.2-24
	c-44.1-1.6-88.4-1.5-132.6,0c-36.7,1.3-62.3,25.9-68.9,62.1c-1.2,6.4-1.9,12.9-2.8,19.3v106.2c0.5,3.4,1.2,6.9,1.5,10.3
	c1.5,22,10.5,40.9,25,53.7L246.7,475c50,0.4,100-2.1,149.9-7.5C434,463.5,463.5,434,467.5,396.7z"/>
<linearGradient id="SVGID_5_" gradientUnits="userSpaceOnUse" x1="337.1831" y1="76.3947" x2="283.0798" y2="331.4525" gradientTransform="matrix(1 0 0 -1 1.831055e-04 514)">
	<stop  offset="0" style="stop-color:#833AB4;stop-opacity:0"/>
	<stop  offset="1" style="stop-color:#833AB4"/>
</linearGradient>
<path class="st4" d="M467.5,396.7c-4,37.3-33.5,66.9-70.8,70.8c-49.9,5.3-99.9,7.8-149.9,7.5L145,373.2c11.8,10.3,27.2,16.6,45,17.3
	c44.1,1.7,88.4,1.6,132.6,0c39.9-1.4,68.8-31,70.1-70.9c1.3-42.4,1.3-84.9,0-127.3c-0.6-18.4-7-34.6-17.8-46.9L475,245.5
	C475.4,295.9,472.9,346.3,467.5,396.7z"/>
<linearGradient id="SVGID_6_" gradientUnits="userSpaceOnUse" x1="357.7706" y1="156.2291" x2="140.4611" y2="373.5388" gradientTransform="matrix(1 0 0 -1 1.831055e-04 514)">
	<stop  offset="0" style="stop-color:#833AB4;stop-opacity:0"/>
	<stop  offset="1" style="stop-color:#833AB4"/>
</linearGradient>
<path class="st5" d="M307.7,208.6c-12.8-14-31.2-22.7-51.7-22.7c-38.7,0-70.2,31.4-70.2,70.2c0,20.5,8.8,38.9,22.7,51.7L370.9,470
	c8.6-0.7,17.2-1.6,25.8-2.5c37.4-4,66.9-33.5,70.8-70.8c0.9-8.6,1.7-17.2,2.5-25.8L307.7,208.6z"/>
<linearGradient id="SVGID_7_" gradientUnits="userSpaceOnUse" x1="373.8889" y1="287.7161" x2="302.0287" y2="359.5761" gradientTransform="matrix(1 0 0 -1 1.831055e-04 514)">
	<stop  offset="0" style="stop-color:#833AB4;stop-opacity:0"/>
	<stop  offset="1" style="stop-color:#833AB4"/>
</linearGradient>
<path class="st6" d="M474.2,303.2L343.5,172.6c-3-4-7.8-6.6-13.3-6.6c-9.2,0-16.7,7.5-16.7,16.7c0,5.4,2.6,10.2,6.6,13.3
	l151.7,151.7C472.8,332.8,473.6,318,474.2,303.2z"/>
<linearGradient id="SVGID_8_" gradientUnits="userSpaceOnUse" x1="342.9648" y1="344.3604" x2="165.7839" y2="167.1794" gradientTransform="matrix(1 0 0 -1 1.831055e-04 514)">
	<stop  offset="0" style="stop-color:#833AB4"/>
	<stop  offset="9.220000e-02" style="stop-color:#9C3495"/>
	<stop  offset="0.2927" style="stop-color:#DC2546"/>
	<stop  offset="0.392" style="stop-color:#FD1D1D"/>
	<stop  offset="0.5589" style="stop-color:#FC6831"/>
	<stop  offset="0.6887" style="stop-color:#FC9B40"/>
	<stop  offset="0.7521" style="stop-color:#FCAF45"/>
	<stop  offset="0.7806" style="stop-color:#FDB750"/>
	<stop  offset="0.8656" style="stop-color:#FECB6A"/>
	<stop  offset="0.9415" style="stop-color:#FFD87A"/>
	<stop  offset="1" style="stop-color:#FFDC80"/>
</linearGradient>
<path class="st7" d="M118.3,202.9c0.9-6.4,1.6-12.9,2.8-19.3c6.6-36.2,32.2-60.9,68.9-62.1c44.2-1.5,88.4-1.6,132.6,0
	c39.9,1.4,68.8,31,70.1,70.9c1.3,42.4,1.3,84.9,0,127.3c-1.2,39.9-30.1,69.5-70.1,70.9c-44.1,1.6-88.4,1.6-132.6,0
	c-39.9-1.5-67.5-31.1-70.2-71.1c-0.2-3.5-1-6.9-1.5-10.3C118.3,273.7,118.3,238.3,118.3,202.9z M256,366.9c20.2,0,40.4,0.6,60.6-0.1
	c31.6-1.2,51.1-20.1,51.8-51.7c0.9-39.4,0.9-78.8,0-118.2c-0.7-31.6-20.2-50.9-51.8-51.6c-40.1-0.8-80.3-0.8-120.5,0
	c-31.4,0.7-50.9,19.6-51.7,50.8c-1.1,39.9-1.1,79.8,0,119.7c0.9,31.2,20.4,49.7,51.8,50.9C216.1,367.5,236.1,366.9,256,366.9z"/>
<g>
	<path class="st8" d="M118.3,202.9c0.9-6.4,1.6-12.9,2.8-19.3c6.6-36.2,32.2-60.9,68.9-62.1c44.2-1.5,88.4-1.6,132.6,0
		c39.9,1.4,68.8,31,70.1,70.9c1.3,42.4,1.3,84.9,0,127.3c-1.2,39.9-30.1,69.5-70.1,70.9c-44.1,1.6-88.4,1.6-132.6,0
		c-39.9-1.5-67.5-31.1-70.2-71.1c-0.2-3.5-1-6.9-1.5-10.3C118.3,273.7,118.3,238.3,118.3,202.9z M256,366.9
		c20.2,0,40.4,0.6,60.6-0.1c31.6-1.2,51.1-20.1,51.8-51.7c0.9-39.4,0.9-78.8,0-118.2c-0.7-31.6-20.2-50.9-51.8-51.6
		c-40.1-0.8-80.3-0.8-120.5,0c-31.4,0.7-50.9,19.6-51.7,50.8c-1.1,39.9-1.1,79.8,0,119.7c0.9,31.2,20.4,49.7,51.8,50.9
		C216.1,367.5,236.1,366.9,256,366.9z"/>
	<path class="st8" d="M256,185.8c-38.7,0-70.2,31.4-70.2,70.2c0,38.7,31.4,70.2,70.2,70.2c38.7,0,70.2-31.4,70.2-70.2
		C326.2,217.3,294.7,185.8,256,185.8z M256,302c-25.4,0-46-20.6-46-46s20.6-46,46-46s46,20.6,46,46S281.4,302,256,302z"/>
	<path class="st8" d="M346.9,182.6c0,9.2-7.5,16.7-16.7,16.7s-16.7-7.5-16.7-16.7c0-9.2,7.5-16.7,16.7-16.7S346.9,173.4,346.9,182.6
		z"/>
</g>
</svg>
