<?xml version="1.0" encoding="UTF-8" standalone="no"?>
<!DOCTYPE svg PUBLIC "-//W3C//DTD SVG 1.1//EN" "http://www.w3.org/Graphics/SVG/1.1/DTD/svg11.dtd">
<svg width="100%" height="100%" viewBox="0 0 175 63" version="1.1" xmlns="http://www.w3.org/2000/svg" xmlns:xlink="http://www.w3.org/1999/xlink" xml:space="preserve" xmlns:serif="http://www.serif.com/" style="fill-rule:evenodd;clip-rule:evenodd;stroke-linejoin:round;stroke-miterlimit:2;">
    <g transform="matrix(0.24,0,0,-0.24,-8.67196,92.4699)">
        <path d="M337.48,289.19C339.47,288.86 340.96,289 341.95,289.6C381.41,313.78 420.83,338.01 460.22,362.3C460.5,362.47 460.65,362.72 460.68,363.05L461.35,371.6C461.38,371.91 461.54,372.11 461.83,372.22L489.73,381.96C490.6,382.26 491.56,382.14 492.33,381.63C495.13,379.74 497.91,373.78 495.66,370.68C495.38,370.29 494.11,369.22 491.85,367.45C463.85,345.57 435.31,323.24 406.22,300.47C405.87,300.2 405.75,299.84 405.87,299.41L408.66,289.31C408.75,288.98 408.97,288.81 409.31,288.81C439.26,288.8 469.34,289.45 499.25,288.06C504,287.84 517.63,272.32 521.59,268.43C521.71,268.31 521.77,268.2 521.77,268.11C521.77,268.02 521.73,267.94 521.65,267.88C521.56,267.8 521.46,267.8 521.35,267.87C515.05,272.25 508.79,275.81 501.13,275.81C421.52,275.79 341.93,276.08 262.32,276.34C262.05,276.34 261.91,276.47 261.91,276.74L261.18,360.15C261.18,360.38 261.36,360.56 261.59,360.56L300.71,360.56C301.1,360.56 301.2,360.39 301.01,360.06C297.63,354.05 294.12,348.12 290.48,342.28C288.07,338.4 277.23,333.91 272.93,331.76C272.64,331.61 272.5,331.38 272.5,331.05L272.5,291.55C272.5,291.22 272.67,291.04 273,291.03L321.48,289.01C322.37,288.98 322.83,289.4 322.85,290.29L323.75,324.84C323.76,325.26 324.1,325.59 324.52,325.59L336.41,325.51C337.02,325.5 337.51,325.01 337.5,324.4L336.88,289.91C336.87,289.5 337.07,289.26 337.48,289.19Z" style="fill:rgb(68,68,68);fill-rule:nonzero;"/>
    </g>
    <g transform="matrix(0.24,0,0,-0.24,-8.67196,113.991)">
        <path d="M154.83,432.01L156.02,429.88C156.2,429.56 156.21,429.16 156.04,428.84C155.7,428.17 155.35,427.52 155,426.91C140.88,402.55 131.2,386.09 125.97,377.52C124.74,375.51 122.82,373.18 120.23,370.55C119.93,370.24 119.99,370.03 120.4,369.91C122.14,369.4 123.76,369.18 125.26,369.24C130.65,369.45 136.03,369.41 141.41,369.14C141.62,369.13 141.79,368.96 141.8,368.75C141.82,368.54 141.67,368.35 141.46,368.32C131.34,366.61 121.08,365.19 111.5,361.38C97.36,355.75 83.25,350.05 69.17,344.26C64.02,342.15 61.35,339.7 62.14,334.02C62.18,333.73 62.35,333.59 62.64,333.6C65.48,333.73 74.24,334.62 77.68,332.76C77.97,332.6 78.18,332.32 78.24,332C79.1,327.33 78.09,321.38 77.7,316.68C77.66,316.24 78.19,315.98 78.52,316.28C86.98,323.94 94.44,323.91 107.19,324.41C115.08,324.73 122.96,324.7 130.84,324.33C150.07,323.43 155.33,314.97 161.88,298.49C161.94,298.33 161.88,298.15 161.72,298.07C161.57,297.99 161.38,298.04 161.29,298.18C155.2,307.42 147.24,316.07 135.25,317.08C123.2,318.09 107.68,318.7 95.22,316.05C84.97,313.88 80.83,305.49 77.32,296.79C77.21,296.52 76.94,296.34 76.65,296.35L51.28,296.52C50.9,296.53 50.6,296.86 50.64,297.24L51.17,302.6C51.21,303.02 51.44,303.23 51.86,303.23L64.51,303.23C64.94,303.23 65.3,303.54 65.36,303.97L68.51,325.95C68.54,326.18 68.44,326.31 68.21,326.32L54.02,327.05C53.69,327.07 53.53,327.24 53.53,327.56C53.47,332.26 53.46,336.98 53.5,341.73C53.52,344.83 54.95,346.96 57.79,348.13C75.26,355.3 92.77,362.4 110.3,369.43C110.61,369.56 110.86,369.76 111.03,370.04L150.14,433.34C150.42,433.8 150.31,434.13 149.82,434.34L147.92,435.12C147.51,435.29 147.46,435.54 147.77,435.86C151.94,440.27 156.93,442.48 162.75,442.48C185.25,442.48 207.75,442.47 230.25,442.45C238.59,442.44 247.45,443.39 251.31,434.01C251.44,433.7 251.41,433.41 251.23,433.13C250.59,432.12 250.28,431.38 250.3,430.92C251.31,409.29 252.64,387.68 254.28,366.09C254.31,365.68 254.12,365.48 253.71,365.48L247.7,365.48C247.25,365.48 247.02,365.7 246.99,366.15C245.8,384.78 244.58,403.39 243.33,421.98C243.16,424.39 242.82,426.68 242.31,428.87C242.04,430 241.08,430.84 239.92,430.95C238.43,431.1 236.71,431.19 234.75,431.22C208.24,431.66 181.73,432.14 155.22,432.67C154.71,432.68 154.58,432.46 154.83,432.01Z" style="fill:rgb(68,68,68);fill-rule:nonzero;"/>
    </g>
    <g transform="matrix(0.24,0,0,-0.24,-8.67196,103.959)">
        <path d="M467.73,343.61C467.33,343.63 467.19,344.14 467.51,344.37C495.08,364.05 527.41,381.66 560.72,389.19C636.39,406.29 689.28,360.5 729.06,302.74C733.21,296.71 726.5,291.64 722.56,296.99C705.78,319.74 688.36,340.47 666.05,357.22C635.5,380.16 598.89,388.8 561.49,380.15C532.82,373.52 505.32,359.38 481.03,343.03C480.92,342.96 480.79,342.92 480.66,342.93L467.73,343.61Z" style="fill:rgb(36,102,173);fill-rule:nonzero;"/>
    </g>
    <g transform="matrix(0.24,0,0,-0.24,-8.67196,97.8891)">
        <path d="M224.41,356.06C205.03,356.22 185.98,356.19 167.25,355.98C165.26,355.96 163.4,354.62 162.27,352.77C158.02,345.84 153.69,338.98 149.28,332.17C149.06,331.84 148.88,331.85 148.75,332.22C148.66,332.46 148.67,332.68 148.76,332.88C152.23,340.11 155.8,347.29 159.46,354.42C162.36,360.07 164.16,360.5 170.1,360.56C182.85,360.69 201.9,360.5 227.25,359.98C229.58,359.93 230.76,358.8 230.8,356.57C230.98,345.18 231.04,333.79 230.99,322.38C230.97,317.89 228.25,316.43 224.01,316.19C191.31,314.4 168.66,313.1 156.07,312.27C151.71,311.98 148.01,311.95 144.98,312.17C144.62,312.2 144.44,312.62 144.66,312.9C144.95,313.27 145.5,313.49 146.31,313.54C160.2,314.42 184.7,316.4 219.8,319.49C225.03,319.95 226.43,320.27 226.49,326.02C226.58,335.63 226.53,345.01 226.32,354.18C226.3,355.22 225.45,356.05 224.41,356.06Z" style="fill:rgb(36,102,173);fill-rule:nonzero;"/>
    </g>
    <g transform="matrix(0.24,0,0,-0.24,-8.67196,168.449)">
        <path d="M290.75,483.6C295.33,486 303.02,484.33 307.94,484.71C309.59,484.84 309.71,484.48 308.29,483.62C266.02,458.06 214.85,442.53 165.82,442.54C113.72,442.55 54.66,469.04 39.15,523.52C39.09,523.73 39.2,523.95 39.4,524.03C39.6,524.11 39.83,524.03 39.93,523.84C41.58,520.71 43.32,517.5 45.15,514.22C74.37,461.69 134.19,446.01 190.26,452.65C225.81,456.86 259.31,467.17 290.75,483.6Z" style="fill:rgb(36,102,173);fill-rule:nonzero;"/>
    </g>
    <g transform="matrix(0.24,0,0,-0.24,-8.67196,146.405)">
        <path d="M719.04,454.87C717.47,456.05 715.36,457.14 714.1,458.34C706.46,465.63 705.01,474.34 709.74,484.46C710.21,485.46 710.77,485.51 711.42,484.62L718.45,474.91C718.53,474.8 718.57,474.67 718.58,474.53C718.76,470.9 720.12,468.2 722.67,466.43C734.2,458.43 744.79,478.3 730.07,483.05C729.81,483.13 729.58,483.3 729.41,483.52L722.31,493.35C722.07,493.68 722.25,494.15 722.65,494.23C745.18,498.9 758.94,471.05 740.3,457.03C740.04,456.84 739.94,456.58 739.99,456.27C741.04,450.08 737.76,445.63 733.46,441.32C726.58,434.43 720.6,429.08 715.52,425.28C711.65,422.38 707.88,418.98 708.57,413.77C709.25,408.62 711.9,404.99 716.51,402.9C719.12,401.72 725.61,401.53 728.43,402.54C734.41,404.68 738.32,410.13 743.04,415.49C747.1,420.09 755.95,424.15 761.63,419.96C762.34,419.43 762.51,418.45 762.02,417.72C760.73,415.77 759.22,413.92 757.51,412.16C753.49,408.04 752.95,404.47 751.06,398.74C747.47,387.88 739.71,381.49 727.76,379.56C704.92,375.89 684.24,390.21 684.77,414.3C685.22,434.62 701.81,441.83 716.71,449.81C717.8,450.4 718.66,451.82 719.3,454.09C719.39,454.41 719.31,454.67 719.04,454.87Z" style="fill:rgb(68,68,68);fill-rule:nonzero;"/>
    </g>
    <g transform="matrix(0.24,0,0,-0.24,-8.67196,143.335)">
        <path d="M219.31,412.5L202.21,412.5C202.05,412.5 201.91,412.41 201.84,412.27L196.74,401.73C196.67,401.59 196.53,401.5 196.37,401.5L177.78,401.5C177.46,401.5 177.27,401.84 177.42,402.11L209.79,460.29C209.87,460.42 210,460.5 210.15,460.5L231.62,460.5C231.83,460.5 232.01,460.34 232.03,460.14L238.57,401.96C238.6,401.71 238.41,401.5 238.16,401.5L220.99,401.5C220.77,401.5 220.6,401.66 220.58,401.88L219.72,412.12C219.7,412.34 219.53,412.5 219.31,412.5M217.78,446.52L208.58,426.94C208.43,426.62 208.66,426.25 209.02,426.25L218.08,426.25C218.4,426.25 218.65,426.51 218.64,426.83L217.94,446.49C217.94,446.58 217.82,446.6 217.78,446.52Z" style="fill:rgb(68,68,68);fill-rule:nonzero;"/>
    </g>
    <g transform="matrix(0.24,0,0,-0.24,-8.67196,143.307)">
        <path d="M288.99,432.19C296.28,430.42 300.33,426.06 299.74,418.2C298.76,405.2 285.04,401.66 274.13,401.67C264.76,401.68 255.41,401.58 246.08,401.35C245.73,401.34 245.59,401.51 245.66,401.86L257.94,459.9C257.99,460.15 258.15,460.28 258.41,460.29C271.3,460.54 280.99,460.49 287.49,460.15C295.84,459.72 304.31,454.47 302.73,445.12C301.43,437.36 296.01,434.53 288.99,432.77C288.21,432.58 288.21,432.38 288.99,432.19M283.29,445.78C282.47,448.67 276.03,448.63 273.8,448.24C273.45,448.18 273.23,447.98 273.16,447.63L271.13,438.05C271.06,437.68 271.2,437.49 271.57,437.46C277.12,437 285.63,437.52 283.29,445.78M280.54,421.56C279.59,426.22 272.58,425.83 268.89,425.14C268.6,425.09 268.42,424.91 268.35,424.62L265.94,414.03C265.87,413.74 265.99,413.59 266.28,413.56C272.41,412.96 282.25,413.16 280.54,421.56Z" style="fill:rgb(68,68,68);fill-rule:nonzero;"/>
    </g>
    <g transform="matrix(0.24,0,0,-0.24,-8.67196,143.335)">
        <path d="M324.16,446.66L308.65,446.79C308.4,446.79 308.21,447.02 308.26,447.27L310.97,460.18C311.01,460.37 311.18,460.5 311.36,460.5L361.62,460.5C361.87,460.5 362.06,460.27 362.01,460.02L359.3,447.07C359.26,446.88 359.09,446.75 358.91,446.75L342.82,446.75C342.64,446.75 342.47,446.62 342.43,446.43L333.02,401.82C332.98,401.63 332.81,401.5 332.63,401.5L315.59,401.5C315.34,401.5 315.15,401.73 315.2,401.98L324.55,446.18C324.6,446.43 324.41,446.66 324.16,446.66Z" style="fill:rgb(68,68,68);fill-rule:nonzero;"/>
    </g>
    <g transform="matrix(0.24,0,0,-0.24,-8.67196,143.34)">
        <path d="M398.99,404.05C385.12,397.6 363.84,399.41 359.09,417.37C352.63,441.82 370.41,464.42 396.52,461.05C425.89,457.25 421.14,414.33 398.99,404.05M376.84,423.95C377.4,418.28 382.29,414.55 387.74,416.03C396.65,418.45 399.78,433.23 397.31,440.54C394.89,447.66 385.48,447.46 381.55,442.21C377.72,437.08 376.15,430.99 376.84,423.95Z" style="fill:rgb(68,68,68);fill-rule:nonzero;"/>
    </g>
    <g transform="matrix(0.24,0,0,-0.24,-8.67196,143.868)">
        <path d="M463.02,434.38C476.84,432.51 476.97,415.23 467.2,408.75C456.27,401.49 434.09,403.56 420.16,403.77C419.85,403.78 419.73,403.93 419.8,404.22L432.09,462.22C432.16,462.55 432.37,462.72 432.71,462.72C440.68,462.73 448.61,462.73 456.5,462.72C464.72,462.72 476,461.02 476.92,450.48C477.66,441.95 471.04,436.33 463.01,435.14C462.82,435.11 462.68,434.95 462.68,434.76C462.69,434.57 462.83,434.41 463.02,434.38M457.65,447.89C456.8,451.02 450.3,450.98 447.95,450.59C447.62,450.53 447.41,450.33 447.34,450L445.33,440.44C445.26,440.11 445.39,439.92 445.72,439.88C451.1,439.16 459.76,440.16 457.65,447.89M455.04,422.56C455.17,428.49 446.93,428.34 442.99,427.41C442.74,427.36 442.58,427.2 442.52,426.95L440.13,416.38C440.04,415.99 440.2,415.79 440.59,415.76C445.81,415.45 454.88,415.17 455.04,422.56Z" style="fill:rgb(36,102,173);fill-rule:nonzero;"/>
    </g>
    <g transform="matrix(0.24,0,0,-0.24,-8.67196,143.335)">
        <path d="M504.9,438L521.71,438C521.96,438 522.14,437.77 522.09,437.53L519.39,424.55C519.36,424.37 519.2,424.24 519.01,424.24L501.8,424.26C501.62,424.26 501.46,424.13 501.42,423.95L499.69,415.97C499.64,415.73 499.82,415.5 500.07,415.5L519.41,415.5C519.66,415.5 519.84,415.27 519.79,415.03L517.03,401.81C517,401.63 516.84,401.5 516.65,401.5L479.4,401.5C479.15,401.5 478.97,401.73 479.02,401.97L491.29,460.19C491.33,460.37 491.49,460.5 491.68,460.5L527.64,460.5C527.89,460.5 528.07,460.27 528.02,460.03L525.23,446.9C525.19,446.72 525.03,446.59 524.85,446.59L506.43,446.52C506.24,446.52 506.08,446.39 506.05,446.21L504.52,438.47C504.47,438.22 504.66,438 504.9,438Z" style="fill:rgb(36,102,173);fill-rule:nonzero;"/>
    </g>
    <g transform="matrix(0.24,0,0,-0.24,-8.67196,143.331)">
        <path d="M560.48,431.43C572.5,428.94 573.82,414.7 565.85,407.23C556.18,398.16 536.35,399.59 524.97,404.22C524.69,404.34 524.53,404.64 524.6,404.93L527.37,417.41C527.44,417.73 527.81,417.88 528.08,417.71C533.22,414.56 552.22,408.88 553.49,419.32C554.34,426.32 541.63,425.45 537.43,425.14C536.62,425.09 536.3,425.45 536.47,426.24L538.84,437.73C538.9,438.02 539.15,438.22 539.44,438.22C545.47,438.2 558.11,436.75 557.69,444.2C557.25,452 540.63,447.52 536.19,445.73C535.76,445.56 535.59,445.7 535.66,446.15C536.27,450.02 537.05,453.79 537.98,457.47C538.25,458.5 538.75,459.07 539.49,459.18C540.08,459.26 540.4,459.31 540.47,459.33C550.92,462.52 570.35,463.82 574.54,451.02C577.79,441.1 569.96,433.14 560.53,432.26C560.32,432.24 560.16,432.07 560.15,431.87C560.14,431.66 560.28,431.47 560.48,431.43Z" style="fill:rgb(36,102,173);fill-rule:nonzero;"/>
    </g>
    <g transform="matrix(0.24,0,0,-0.24,-8.67196,143.335)">
        <path d="M598.06,415.5L617.55,415.5C617.75,415.5 617.9,415.31 617.86,415.11L615.07,401.75C615.04,401.61 614.91,401.5 614.76,401.5L577.31,401.5C577.11,401.5 576.96,401.69 577,401.89L589.37,460.25C589.4,460.39 589.53,460.5 589.68,460.5L625.81,460.5C626.02,460.5 626.17,460.31 626.13,460.11L623.3,447.08C623.27,446.93 623.15,446.83 623,446.82L604.42,446.46C604.27,446.45 604.14,446.35 604.11,446.2L602.49,438.38C602.45,438.19 602.6,438 602.8,438L619.84,438C620.04,438 620.19,437.81 620.15,437.61L617.4,424.5C617.37,424.36 617.24,424.25 617.09,424.25L599.82,424.25C599.67,424.25 599.54,424.15 599.51,424L597.74,415.89C597.7,415.69 597.85,415.5 598.06,415.5Z" style="fill:rgb(36,102,173);fill-rule:nonzero;"/>
    </g>
    <g transform="matrix(0.24,0,0,-0.24,-8.67196,143.335)">
        <path d="M644.63,446.7L628.85,446.77C628.66,446.77 628.51,446.95 628.55,447.14L631.37,460.26C631.4,460.4 631.52,460.5 631.67,460.5L682.13,460.5C682.32,460.5 682.47,460.32 682.43,460.13L679.61,446.81C679.58,446.66 679.46,446.56 679.31,446.56L663.1,446.53C662.95,446.53 662.83,446.43 662.8,446.28L653.41,401.75C653.38,401.6 653.26,401.5 653.11,401.5L635.86,401.5C635.67,401.5 635.52,401.68 635.56,401.87L644.93,446.33C644.97,446.52 644.83,446.7 644.63,446.7Z" style="fill:rgb(36,102,173);fill-rule:nonzero;"/>
    </g>
    <g transform="matrix(-0.00334976,0.239977,-0.239977,-0.00334976,230.357,-112.391)">
        <ellipse cx="598.33" cy="389.31" rx="6.582" ry="7.961" style="fill:rgb(36,102,173);"/>
    </g>
    <g transform="matrix(-0.00460633,0.239956,-0.239956,-0.00460633,236.152,-116.845)">
        <ellipse cx="618.98" cy="389.31" rx="6.59" ry="7.932" style="fill:rgb(36,102,173);"/>
    </g>
</svg>
