<?xml version="1.0" encoding="UTF-8" standalone="no"?>
<!DOCTYPE svg PUBLIC "-//W3C//DTD SVG 1.1//EN" "http://www.w3.org/Graphics/SVG/1.1/DTD/svg11.dtd">
<svg width="100%" height="100%" viewBox="0 0 16 16" version="1.1" xmlns="http://www.w3.org/2000/svg" xmlns:xlink="http://www.w3.org/1999/xlink" xml:space="preserve" xmlns:serif="http://www.serif.com/" style="fill-rule:evenodd;clip-rule:evenodd;stroke-linejoin:round;stroke-miterlimit:2;">
    <path d="M8,0C7.31,0 6.157,0.265 5.072,0.56C3.962,0.86 2.843,1.215 2.185,1.43C1.625,1.615 1.218,2.107 1.141,2.692C0.545,7.169 1.928,10.487 3.606,12.682C4.318,13.621 5.166,14.448 6.123,15.135C6.509,15.408 6.867,15.617 7.171,15.76C7.451,15.892 7.752,16 8,16C8.248,16 8.548,15.892 8.829,15.76C9.195,15.582 9.546,15.373 9.877,15.135C10.834,14.448 11.682,13.621 12.394,12.682C14.072,10.487 15.455,7.169 14.859,2.692C14.782,2.106 14.376,1.614 13.815,1.429C12.86,1.116 11.897,0.826 10.928,0.559C9.843,0.266 8.69,0 8,0ZM10.146,5.146C10.24,5.052 10.367,4.999 10.5,4.999C10.775,4.999 11.001,5.225 11.001,5.5C11.001,5.633 10.948,5.76 10.854,5.854L7.854,8.854C7.76,8.948 7.633,9.001 7.5,9.001C7.367,9.001 7.24,8.948 7.146,8.854L5.646,7.354C5.552,7.26 5.499,7.133 5.499,7C5.499,6.725 5.725,6.499 6,6.499C6.133,6.499 6.26,6.552 6.354,6.646L7.5,7.793L10.146,5.146Z" style="fill:rgb(255,206,0);"/>
</svg>
